<svg width="8" height="8" viewBox="0 0 8 8" fill="none" xmlns="http://www.w3.org/2000/svg">
    <path fill-rule="evenodd" clip-rule="evenodd" d="M1.87881 0.464264C1.48819 0.073761 0.855133 0.073761 0.464508 0.464264C0.0740051 0.854828 0.0740051 1.48795 0.464508 1.87851L2.58585 3.99985L0.464508 6.12112C0.0740051 6.51163 0.0740051 7.14481 0.464508 7.53537C0.855133 7.92587 1.48819 7.92587 1.87881 7.53537L4.00003 5.41409L6.12137 7.53537C6.51199 7.92587 7.14505 7.92587 7.53568 7.53537C7.92618 7.14481 7.92618 6.51163 7.53568 6.12112L5.41434 3.99985L7.53568 1.87851C7.92618 1.48795 7.92618 0.854828 7.53568 0.464264C7.14505 0.073761 6.51199 0.073761 6.12137 0.464264L4.00003 2.58554L1.87881 0.464264Z" fill="#808080"/>
</svg>
