<svg width="11" height="12" viewBox="0 0 11 12" fill="none" xmlns="http://www.w3.org/2000/svg">
    <path fill-rule="evenodd" clip-rule="evenodd" d="M7.14873 8.72445C5.38869 10.0091 2.90701 9.85676 1.31802 8.26776C-0.43934 6.51044 -0.43934 3.6612 1.31802 1.90384C3.07538 0.146475 5.92462 0.146475 7.68196 1.90384C9.27096 3.49284 9.42316 5.97452 8.13866 7.73456L10.5104 10.1063C10.7838 10.3797 10.7838 10.8229 10.5104 11.0963C10.2371 11.3696 9.79386 11.3696 9.52046 11.0963L7.14873 8.72445ZM2.27261 7.31321C1.04246 6.08306 1.04246 4.08859 2.27261 2.85844C3.50276 1.62828 5.49723 1.62828 6.72738 2.85844C7.95756 4.08859 7.95756 6.08306 6.72738 7.31321C5.49723 8.54336 3.50276 8.54336 2.27261 7.31321Z" fill="#808080"/>
</svg>
