<svg width="300" height="300" viewBox="0 0 300 300" fill="none" xmlns="http://www.w3.org/2000/svg">
    <rect width="300" height="300" fill="white"/>
    <rect width="300" height="300" fill="url(#paint0_radial)"/>
    <g filter="url(#filter0_di)">
        <path d="M188.716 105L190.322 105.442C197.337 107.176 203.863 110.494 209.397 115.141C213.986 119.012 217.723 123.791 220.373 129.178C220.424 129.262 220.451 129.358 220.451 129.456C220.451 129.554 220.424 129.651 220.373 129.734C218.982 132.235 217.277 134.547 215.299 136.614C211.338 140.74 206.369 143.763 200.884 145.384C198.088 146.22 195.194 146.676 192.277 146.74C186.852 146.886 181.475 145.685 176.627 143.244C176.492 143.179 176.37 143.101 176.228 143.029C176.905 142.152 177.576 141.324 178.204 140.46C182.863 134.179 186.07 126.943 187.596 119.273C188.376 115.365 188.721 111.382 188.623 107.398C188.623 106.606 188.538 105.821 188.488 105.029L188.716 105Z" fill="white"/>
        <path d="M110.531 105C110.488 106.206 110.395 107.412 110.395 108.618C110.328 121.027 114.622 133.065 122.527 142.63L122.827 143.008C122.734 143.065 122.655 143.122 122.57 143.165C118.181 145.416 113.336 146.637 108.404 146.733C99.8063 146.999 91.4527 143.851 85.1684 137.977C82.5736 135.606 80.3805 132.829 78.6744 129.756C78.6167 129.664 78.5862 129.558 78.5862 129.449C78.5862 129.34 78.6167 129.234 78.6744 129.142C82.8115 120.798 89.4873 113.979 97.7426 109.667C101.671 107.601 105.852 106.058 110.181 105.078C110.255 105.06 110.327 105.034 110.395 105H110.531Z" fill="white"/>
        <path d="M74 148.153C74.0295 148.012 74.0486 147.869 74.0571 147.725C74.1918 142.901 75.1101 138.131 76.776 133.602C81.85 141.181 88.7008 146.391 97.4714 148.924C105.976 151.408 115.095 150.697 123.112 146.926C122.984 147.639 122.841 148.26 122.748 148.924C122.28 152.1 122.814 155.343 124.275 158.201C124.349 158.305 124.379 158.433 124.359 158.558C124.339 158.684 124.27 158.796 124.168 158.872C119.346 163.947 113.013 167.329 106.113 168.513C97.9175 170.01 89.4595 168.304 82.4851 163.746C79.6855 161.953 77.1796 159.739 75.0562 157.181C74.8861 156.976 74.7729 156.73 74.7279 156.467C74.3279 154.319 74.1035 152.143 74.0571 149.959C74.0471 149.86 74.028 149.762 74 149.666V148.153Z" fill="white"/>
        <path d="M151.929 174.672C153.859 172.022 155.507 169.179 156.846 166.187C162.969 167.707 168.178 166.187 172.503 161.627C179.275 168.285 187.346 172.06 196.859 172.524C206.372 172.988 214.764 170.055 222.207 164.053C222.136 164.238 222.093 164.374 222.043 164.503C217.861 174.672 210.625 181.765 200.477 185.954C196.321 187.662 191.939 188.758 187.468 189.208C176.435 190.379 166.658 187.26 157.952 180.531C155.824 178.87 153.873 176.995 152.129 174.936L151.929 174.672Z" fill="white"/>
        <path d="M76.8545 164.06C84.3119 170.069 92.7257 173.002 102.238 172.524C111.751 172.046 119.801 168.242 126.573 161.612C128.47 163.787 130.95 165.372 133.72 166.18C136.49 166.988 139.433 166.986 142.202 166.172C143.553 169.187 145.208 172.056 147.14 174.736C146.505 175.45 145.891 176.163 145.242 176.813C138.616 183.707 129.804 188.088 120.308 189.208C116.658 189.631 112.966 189.528 109.346 188.902C105.109 188.268 100.975 187.067 97.0574 185.333C92.5058 183.298 88.3873 180.408 84.9257 176.82C81.4798 173.234 78.7693 169.008 76.9473 164.381C76.9187 164.303 76.8973 164.231 76.8545 164.06Z" fill="white"/>
        <path d="M222.293 133.545C222.628 134.601 222.971 135.593 223.263 136.6C224.302 140.211 224.88 143.94 224.983 147.697C225.066 150.652 224.844 153.608 224.32 156.517C224.285 156.724 224.194 156.917 224.056 157.074C221.073 160.657 217.367 163.568 213.179 165.616C208.992 167.664 204.418 168.803 199.759 168.957C195.1 169.112 190.461 168.278 186.147 166.512C181.833 164.745 177.942 162.086 174.729 158.708L174.594 158.558C176.513 154.981 176.975 150.801 175.885 146.89C183.915 150.68 193.055 151.395 201.576 148.903C210.347 146.391 217.169 141.181 222.293 133.545Z" fill="white"/>
        <path d="M181.644 124.075C181.287 125.089 180.931 126.109 180.56 127.115C178.606 132.404 175.803 137.338 172.26 141.723C168.134 146.743 162.912 150.749 156.995 153.434C154.686 154.489 152.3 155.369 149.859 156.067C149.679 156.114 149.49 156.114 149.31 156.067C143.17 154.406 137.449 151.471 132.518 147.454C127.909 143.591 124.123 138.842 121.385 133.488C119.841 130.567 118.552 127.518 117.532 124.375C117.532 124.275 117.46 124.168 117.432 124.061L117.546 123.961C117.614 124.093 117.695 124.217 117.788 124.332C120.729 127.222 123.64 130.148 126.623 132.989C130.957 137.211 135.743 140.942 140.896 144.114C143.583 145.714 146.389 147.108 149.288 148.282C149.468 148.349 149.665 148.349 149.845 148.282C155.846 145.817 161.435 142.448 166.415 138.291C169.777 135.543 172.945 132.582 176.035 129.542C177.819 127.786 179.603 126.016 181.366 124.254L181.601 124.033L181.644 124.075Z" fill="white"/>
        <path d="M149.517 178.19C152.704 181.513 156.352 184.361 160.35 186.647C164.322 188.923 168.607 190.605 173.066 191.642V191.742C171.454 192.084 169.841 192.456 168.221 192.777C163.896 193.587 159.516 194.064 155.119 194.204C150.156 194.406 145.187 194.337 140.232 193.997C135.435 193.692 130.679 192.922 126.031 191.699C130.487 190.649 134.769 188.967 138.748 186.704C142.731 184.403 146.359 181.535 149.517 178.19Z" fill="white"/>
        <path d="M163.126 136.086C162.191 136.799 161.299 137.463 160.378 138.12C157.102 140.475 153.588 142.482 149.895 144.107C149.775 144.167 149.643 144.198 149.51 144.198C149.376 144.198 149.244 144.167 149.124 144.107C144.512 142.062 140.179 139.438 136.229 136.3L135.972 136.079C142.759 129.156 155.211 128.386 163.126 136.086Z" fill="white"/>
        <path d="M152.657 159.272C156.253 158.039 159.723 156.464 163.019 154.569C166.28 152.642 169.293 150.322 171.989 147.661C173.416 150.822 172.853 156.938 168.043 160.62C165.766 162.34 162.932 163.154 160.09 162.904C157.248 162.655 154.6 161.361 152.657 159.272V159.272Z" fill="white"/>
        <path d="M146.419 159.236C144.66 161.221 142.253 162.517 139.628 162.894C137.002 163.27 134.328 162.702 132.082 161.291C126.701 157.994 125.346 152.014 127.03 147.661C132.477 153.01 139.125 156.979 146.419 159.236V159.236Z" fill="white"/>
        <path d="M149.538 160.884L151.836 163.182C152.278 163.625 152.735 164.067 153.163 164.524C153.206 164.575 153.237 164.634 153.254 164.698C153.271 164.763 153.274 164.83 153.263 164.895C152.232 167.215 150.985 169.432 149.538 171.518C149.467 171.439 149.417 171.375 149.367 171.311C147.996 169.311 146.802 167.195 145.799 164.988C145.72 164.824 145.67 164.695 145.841 164.531C147.033 163.354 148.211 162.169 149.41 160.963L149.538 160.884Z" fill="white"/>
    </g>
    <defs>
        <filter id="filter0_di" x="52" y="87" width="195" height="133.317" filterUnits="userSpaceOnUse" color-interpolation-filters="sRGB">
            <feFlood flood-opacity="0" result="BackgroundImageFix"/>
            <feColorMatrix in="SourceAlpha" type="matrix" values="0 0 0 0 0 0 0 0 0 0 0 0 0 0 0 0 0 0 127 0"/>
            <feOffset dy="4"/>
            <feGaussianBlur stdDeviation="11"/>
            <feColorMatrix type="matrix" values="0 0 0 0 0 0 0 0 0 0 0 0 0 0 0 0 0 0 0.4 0"/>
            <feBlend mode="normal" in2="BackgroundImageFix" result="effect1_dropShadow"/>
            <feBlend mode="normal" in="SourceGraphic" in2="effect1_dropShadow" result="shape"/>
            <feColorMatrix in="SourceAlpha" type="matrix" values="0 0 0 0 0 0 0 0 0 0 0 0 0 0 0 0 0 0 127 0" result="hardAlpha"/>
            <feOffset dy="2"/>
            <feComposite in2="hardAlpha" operator="arithmetic" k2="-1" k3="1"/>
            <feColorMatrix type="matrix" values="0 0 0 0 0 0 0 0 0 0 0 0 0 0 0 0 0 0 0.13 0"/>
            <feBlend mode="normal" in2="shape" result="effect2_innerShadow"/>
        </filter>
        <radialGradient id="paint0_radial" cx="0" cy="0" r="1" gradientUnits="userSpaceOnUse" gradientTransform="translate(150 78.2227) rotate(55.9274) scale(267.741 235.019)">
            <stop stop-color="#16407F"/>
            <stop offset="1" stop-color="#060E35"/>
        </radialGradient>
    </defs>
</svg>
