<svg width="14" height="14" viewBox="0 0 14 14" fill="none" xmlns="http://www.w3.org/2000/svg">
    <path d="M14 10.6094C14 9.00025 12.8787 7.65385 11.375 7.30659C11.1288 7.24982 10.8729 7.21875 10.6094 7.21875C10.5358 7.21875 10.463 7.22193 10.3906 7.22653C8.74748 7.3313 7.42305 8.60574 7.24085 10.2266C7.22673 10.3523 7.21875 10.4799 7.21875 10.6094C7.21875 10.8533 7.2451 11.091 7.29399 11.3203C7.62082 12.8515 8.98067 14 10.6094 14C12.482 14 14 12.482 14 10.6094ZM10.6094 12.8516C9.37103 12.8516 8.36716 11.8477 8.36716 10.6094C8.36716 9.37105 9.37103 8.36719 10.6094 8.36719C11.8477 8.36719 12.8516 9.37105 12.8516 10.6094C12.8516 11.8477 11.8477 12.8516 10.6094 12.8516Z" fill="#808080"/>
    <path d="M11.0468 9.07812H10.2812V10.2812H9.07812V11.0468H11.0468V10.2812V9.07812Z" fill="#808080"/>
    <path d="M2.51562 0C2.30452 0 2.13281 0.171729 2.13281 0.382804V1.2578V2.1875C2.13281 2.3986 2.30452 2.5703 2.51562 2.5703H2.84375C3.05485 2.5703 3.22655 2.39858 3.22655 2.1875V1.2578V0.382804C3.22655 0.171729 3.05485 0 2.84373 0H2.51562Z" fill="#808080"/>
    <path d="M8.53124 0C8.32014 0 8.14844 0.171729 8.14844 0.382804V1.2578V2.1875C8.14844 2.3986 8.32017 2.5703 8.53124 2.5703H8.85937C9.07047 2.5703 9.24218 2.39858 9.24218 2.1875V1.2578V0.382804C9.24218 0.171729 9.07045 0 8.85935 0H8.53124Z" fill="#808080"/>
    <path d="M0.875 11.3203H6.28907C6.2357 11.055 6.20735 10.7808 6.20735 10.5C6.20735 10.408 6.2114 10.317 6.2173 10.2266H1.64063C1.27816 10.2266 0.984369 9.93278 0.984369 9.57031V4.32031H10.3906V6.34956C10.463 6.34583 10.536 6.34377 10.6094 6.34377C10.871 6.34377 11.1266 6.36914 11.375 6.41562V2.13281C11.375 1.64958 10.9832 1.25781 10.5 1.25781H9.78907V2.18751C9.78907 2.70016 9.37204 3.1172 8.85937 3.1172H8.53124C8.01859 3.1172 7.60154 2.70016 7.60154 2.18751V1.25781H3.77343V2.18751C3.77343 2.70016 3.35639 3.1172 2.84374 3.1172H2.51561C2.00296 3.1172 1.58591 2.70016 1.58591 2.18751V1.25781H0.875C0.391771 1.25781 0 1.64961 0 2.13281V10.4453C0 10.9285 0.391771 11.3203 0.875 11.3203Z" fill="#808080"/>
    <path d="M3.08307 6.82922C3.56258 6.82922 3.9513 6.44051 3.9513 5.961C3.9513 5.48149 3.56258 5.09277 3.08307 5.09277C2.60356 5.09277 2.21484 5.48149 2.21484 5.961C2.21484 6.44051 2.60356 6.82922 3.08307 6.82922Z" fill="#808080"/>
    <path d="M5.68757 6.82922C6.16708 6.82922 6.5558 6.44051 6.5558 5.961C6.5558 5.48149 6.16708 5.09277 5.68757 5.09277C5.20806 5.09277 4.81934 5.48149 4.81934 5.961C4.81934 6.44051 5.20806 6.82922 5.68757 6.82922Z" fill="#808080"/>
    <path d="M8.29206 6.82922C8.77157 6.82922 9.16029 6.44051 9.16029 5.961C9.16029 5.48149 8.77157 5.09277 8.29206 5.09277C7.81255 5.09277 7.42383 5.48149 7.42383 5.961C7.42383 6.44051 7.81255 6.82922 8.29206 6.82922Z" fill="#808080"/>
    <path d="M5.68754 9.45419C6.16703 9.45419 6.55574 9.06548 6.55574 8.58598C6.55574 8.10648 6.16703 7.71777 5.68754 7.71777C5.20804 7.71777 4.81934 8.10648 4.81934 8.58598C4.81934 9.06548 5.20804 9.45419 5.68754 9.45419Z" fill="#808080"/>
    <path d="M3.08305 9.45419C3.56255 9.45419 3.95126 9.06548 3.95126 8.58598C3.95126 8.10648 3.56255 7.71777 3.08305 7.71777C2.60355 7.71777 2.21484 8.10648 2.21484 8.58598C2.21484 9.06548 2.60355 9.45419 3.08305 9.45419Z" fill="#808080"/>
</svg>
