<svg width="50" height="50" viewBox="0 0 50 50" fill="none" xmlns="http://www.w3.org/2000/svg">
    <rect width="50" height="50" rx="11" fill="#EBF9EB"/>
    <path d="M21 36C22.1046 36 23 35.1046 23 34C23 32.8954 22.1046 32 21 32C19.8954 32 19 32.8954 19 34C19 35.1046 19.8954 36 21 36Z" fill="#207A20"/>
    <path d="M31.1959 32.0098C30.0967 31.9016 29.1179 32.705 29.0098 33.8042C28.9016 34.9034 29.7049 35.8822 30.8041 35.9904C30.9344 36.0032 31.0656 36.0032 31.1959 35.9904C32.2951 35.8822 33.0984 34.9034 32.9902 33.8042C32.8968 32.8545 32.1455 32.1032 31.1959 32.0098Z" fill="#207A20"/>
    <path d="M35.8156 21.5405C35.6771 21.3332 35.4425 21.2107 35.1931 21.2158H32.1077V21.1616C32.108 17.8881 29.4544 15.2342 26.1809 15.234C22.9075 15.2338 20.2536 17.8873 20.2534 21.1608V21.2158H17.9529L17.168 17.6432C17.0808 17.2798 16.7568 17.0228 16.3831 17.0207H13C13 17.9176 13.727 18.6446 14.6239 18.6446H14.704C15.305 18.6446 15.8248 19.0634 15.9527 19.6506L18.2506 30.2013C18.317 30.5812 18.6498 30.8566 19.0354 30.8508H33.1903C33.5641 30.8486 33.888 30.5917 33.9752 30.2283L35.978 22.2171C36.0367 21.9786 35.9762 21.7264 35.8156 21.5405ZM26.1806 25.4649C23.8039 25.4649 21.8773 23.5382 21.8773 21.1616C21.8773 18.785 23.8039 16.8583 26.1806 16.8583C28.5572 16.8583 30.4839 18.785 30.4839 21.1616C30.4691 23.5321 28.551 25.4501 26.1806 25.4649Z" fill="#207A20"/>
    <path d="M26.2968 20.5205C25.8712 20.9218 25.2029 20.9089 24.7931 20.4916L24.6099 20.3051C24.2961 19.9857 23.783 19.9803 23.4626 20.2932C23.1405 20.6079 23.1357 21.1246 23.4521 21.4451L24.9353 22.9479C25.0853 23.1008 25.2895 23.1884 25.5037 23.1914C25.7151 23.2018 25.9211 23.1233 26.0721 22.9749L28.8943 20.3095C29.2196 20.0022 29.236 19.4899 28.9309 19.1625C28.6231 18.8322 28.1052 18.8154 27.7767 19.1252L26.2968 20.5205Z" fill="#207A20"/>
</svg>
