<svg width="50" height="50" viewBox="0 0 50 50" fill="none" xmlns="http://www.w3.org/2000/svg">
    <rect width="50" height="50" rx="11" fill="#EBF9EB"/>
    <path d="M24.6076 35.0909H26.5352L26.5515 33.2042C30.0881 32.9347 32.1381 31.0561 32.1463 28.2219C32.1381 25.4368 30.0391 23.9585 27.1314 23.305L26.6495 23.1907L26.6822 19.1069C27.7685 19.3601 28.43 20.0543 28.5281 21.0835H31.9176C31.8768 18.38 29.8594 16.4442 26.7148 16.1012L26.7312 14.1818H24.8036L24.7873 16.0849C21.5938 16.3952 19.3395 18.3228 19.3558 21.108C19.3477 23.5746 21.0874 24.9876 23.9134 25.6655L24.6974 25.8615L24.6566 30.1822C23.3253 29.929 22.4268 29.1122 22.337 27.7482H18.9148C18.9964 31.0479 21.1609 32.8938 24.6239 33.196L24.6076 35.0909ZM26.5842 30.1822L26.6168 26.3679C27.8828 26.7681 28.5689 27.2827 28.5771 28.2138C28.5689 29.2021 27.8175 29.9371 26.5842 30.1822ZM24.7219 22.6925C23.701 22.3413 22.9659 21.8104 22.9822 20.8711C22.9822 19.9972 23.603 19.3192 24.7546 19.0824L24.7219 22.6925Z" fill="#207A20"/>
</svg>
