<svg width="50" height="50" viewBox="0 0 50 50" fill="none" xmlns="http://www.w3.org/2000/svg">
    <rect width="50" height="50" rx="11" fill="#16407F" fill-opacity="0.12"/>
    <path fill-rule="evenodd" clip-rule="evenodd" d="M33.1622 25.0811C33.1622 30.0964 29.0964 34.1622 24.0811 34.1622C19.0657 34.1622 15 30.0964 15 25.0811C15 20.0657 19.0657 16 24.0811 16C29.0964 16 33.1622 20.0657 33.1622 25.0811ZM28.654 22.8226L27.5148 21.6834L22.9579 26.2403L20.6797 23.9621L19.5405 25.1013L22.9581 28.5188L24.0973 27.3796L24.0971 27.3795L28.654 22.8226ZM34.2973 25.0811C34.2973 29.8093 30.6837 33.6936 26.0676 34.1228C26.3479 34.1488 26.6318 34.1622 26.9189 34.1622C31.9343 34.1622 36 30.0964 36 25.0811C36 20.0657 31.9343 16 26.9189 16C26.6318 16 26.3479 16.0133 26.0676 16.0394C30.6837 16.4686 34.2973 20.3528 34.2973 25.0811Z" fill="#16407F"/>
</svg>
