<svg width="355" height="110" viewBox="0 0 355 110" fill="none" xmlns="http://www.w3.org/2000/svg">
    <path d="M269.698 -58L273.473 -56.9598C289.966 -52.8837 305.307 -45.0841 318.319 -34.1592C329.107 -25.0587 337.893 -13.8223 344.123 -1.15798C344.243 -0.960833 344.306 -0.734471 344.306 -0.503662C344.306 -0.272853 344.243 -0.0464918 344.123 0.150657C340.853 6.02851 336.844 11.4638 332.194 16.3241C322.881 26.0256 311.2 33.1323 298.304 36.9436C291.732 38.9085 284.927 39.9807 278.07 40.1313C265.315 40.4747 252.673 37.6501 241.277 31.9104C240.958 31.7594 240.673 31.5748 240.337 31.4071C241.931 29.3434 243.508 27.3972 244.985 25.3672C255.937 10.5997 263.477 -6.41283 267.064 -24.4451C268.899 -33.6331 269.709 -42.9962 269.48 -52.3628C269.48 -54.2251 269.278 -56.0706 269.161 -57.9329L269.698 -58Z" fill="white" fill-opacity="0.04"/>
    <path d="M85.8836 -58C85.7829 -55.1646 85.5648 -52.3292 85.5648 -49.4938C85.4064 -20.321 95.5013 7.98039 114.086 30.4675L114.791 31.3567C114.573 31.4909 114.388 31.6252 114.187 31.7258C103.869 37.0186 92.4785 39.8877 80.8839 40.1145C60.6702 40.739 41.0309 33.338 26.2565 19.5286C20.1562 13.9535 15.0002 7.42632 10.989 0.200984C10.8536 -0.0152619 10.7817 -0.265277 10.7817 -0.520447C10.7817 -0.775617 10.8536 -1.02563 10.989 -1.24187C20.7154 -20.8597 36.4102 -36.8893 55.8184 -47.0275C65.0529 -51.8856 74.8844 -55.5125 85.0615 -57.8154C85.2353 -57.8592 85.404 -57.9211 85.5648 -58L85.8836 -58Z" fill="white" fill-opacity="0.04"/>
    <path d="M0 43.4532C0.069422 43.1215 0.114284 42.785 0.13422 42.4466C0.450937 31.1057 2.60985 19.8918 6.52643 9.24402C18.4552 27.0617 34.5616 39.3092 55.181 45.2652C75.1752 51.1049 96.6144 49.4341 115.462 40.5675C115.16 42.2453 114.825 43.7049 114.607 45.2652C113.506 52.7319 114.761 60.3559 118.197 67.0759C118.37 67.3194 118.44 67.621 118.393 67.9158C118.346 68.2107 118.185 68.4753 117.945 68.653C106.609 80.585 91.7203 88.5352 75.4985 91.3193C56.2298 94.839 36.3452 90.8272 19.9484 80.112C13.3665 75.897 7.47521 70.6906 2.48306 64.6767C2.08325 64.1948 1.81711 63.6162 1.7113 62.999C0.77087 57.9499 0.243431 52.8327 0.13422 47.6979C0.110812 47.465 0.0658802 47.2347 0 47.0101L0 43.4532Z" fill="white" fill-opacity="0.04"/>
    <path d="M183.209 105.798C187.747 99.5696 191.621 92.8838 194.769 85.8498C209.164 89.4234 221.412 85.8498 231.579 75.129C247.501 90.7824 266.476 99.6577 288.84 100.748C311.205 101.839 330.935 94.9432 348.434 80.8334C348.266 81.2696 348.165 81.5883 348.048 81.8903C338.216 105.798 321.204 122.475 297.346 132.323C287.575 136.338 277.272 138.915 266.761 139.974C240.823 142.725 217.838 135.394 197.37 119.572C192.368 115.668 187.781 111.26 183.679 106.419L183.209 105.798Z" fill="white" fill-opacity="0.04"/>
    <path d="M6.71094 80.8501C24.2434 94.9767 44.024 101.872 66.3883 100.748C88.7527 99.6241 107.678 90.6817 123.599 75.0955C128.058 80.2076 133.889 83.9344 140.401 85.8345C146.913 87.7346 153.834 87.7282 160.342 85.8163C163.519 92.9036 167.409 99.6493 171.952 105.949C170.459 107.627 169.016 109.305 167.489 110.831C151.913 127.04 131.194 137.34 108.869 139.974C100.289 140.968 91.6099 140.725 83.0987 139.252C73.1364 137.762 63.4193 134.94 54.2079 130.864C43.5071 126.079 33.8245 119.284 25.6862 110.848C17.585 102.418 11.2127 92.4837 6.92904 81.6051C6.86193 81.4206 6.8116 81.2528 6.71094 80.8501Z" fill="white" fill-opacity="0.04"/>
    <path d="M348.635 9.10986C349.424 11.5929 350.229 13.925 350.917 16.2906C353.359 24.7817 354.718 33.5476 354.96 42.3796C355.155 49.3271 354.632 56.2763 353.4 63.1165C353.319 63.6021 353.104 64.0555 352.779 64.4251C345.768 72.8486 337.054 79.6929 327.209 84.5081C317.364 89.3233 306.612 92.0003 295.658 92.3632C284.705 92.7261 273.799 90.7667 263.657 86.6137C253.515 82.4607 244.366 76.2082 236.813 68.2672L236.495 67.9148C241.006 59.5046 242.094 49.677 239.531 40.4837C258.409 49.3924 279.896 51.0755 299.93 45.2149C320.55 39.3093 336.589 27.0617 348.635 9.10986Z" fill="white" fill-opacity="0.04"/>
    <path d="M253.071 -13.1539C252.232 -10.7715 251.393 -8.37235 250.521 -6.00673C245.928 6.42632 239.338 18.0266 231.009 28.3367C221.309 40.1372 209.032 49.5558 195.122 55.8685C189.692 58.3482 184.083 60.4176 178.344 62.0594C177.92 62.1681 177.476 62.1681 177.052 62.0594C162.618 58.1536 149.168 51.254 137.575 41.809C126.74 32.7275 117.84 21.5622 111.402 8.97553C107.772 2.10777 104.74 -5.06041 102.342 -12.4493C102.342 -12.6842 102.175 -12.9358 102.107 -13.1875L102.376 -13.4224C102.536 -13.1132 102.728 -12.821 102.946 -12.5499C109.859 -5.75507 116.704 1.12369 123.717 7.80112C133.905 17.728 145.158 26.4998 157.272 33.9572C163.59 37.7191 170.186 40.9946 177.002 43.7552C177.424 43.9135 177.889 43.9135 178.311 43.7552C192.42 37.9613 205.558 30.04 217.268 20.2668C225.17 13.8074 232.619 6.8448 239.884 -0.302396C244.078 -4.42965 248.273 -8.59046 252.417 -12.7345L252.97 -13.2546L253.071 -13.1539Z" fill="white" fill-opacity="0.04"/>
    <path d="M209.534 15.0826C207.336 16.7604 205.239 18.3207 203.074 19.8642C195.372 25.4018 187.111 30.1195 178.428 33.9405C178.147 34.0808 177.837 34.1538 177.522 34.1538C177.208 34.1538 176.898 34.0808 176.616 33.9405C165.773 29.1325 155.586 22.9648 146.299 15.5859L145.695 15.0658C161.651 -1.2083 190.927 -3.02026 209.534 15.0826Z" fill="white" fill-opacity="0.04"/>
    <path d="M184.921 69.5926C193.376 66.6938 201.533 62.9915 209.282 58.5362C216.949 54.0058 224.032 48.5515 230.371 42.2957C233.727 49.7281 232.401 64.1064 221.093 72.7635C215.741 76.8059 209.079 78.7193 202.397 78.1335C195.715 77.5478 189.488 74.5045 184.921 69.5926V69.5926Z" fill="white" fill-opacity="0.04"/>
    <path d="M170.258 69.5087C166.122 74.1759 160.464 77.2234 154.291 78.1083C148.118 78.9932 141.832 77.658 136.552 74.3406C123.901 66.5894 120.714 52.5299 124.673 42.2957C137.48 54.872 153.11 64.2026 170.258 69.5087V69.5087Z" fill="white" fill-opacity="0.04"/>
    <path d="M177.589 73.3843L182.992 78.7866C184.032 79.8268 185.106 80.867 186.112 81.9408C186.212 82.0604 186.285 82.2004 186.326 82.3511C186.366 82.5018 186.374 82.6595 186.347 82.8132C183.923 88.2666 180.991 93.4795 177.589 98.3827C177.421 98.1981 177.304 98.0471 177.187 97.8961C173.963 93.1948 171.156 88.221 168.798 83.0313C168.613 82.6454 168.496 82.3434 168.899 81.9576C171.7 79.1893 174.469 76.4042 177.287 73.5688L177.589 73.3843Z" fill="white" fill-opacity="0.04"/>
</svg>
