<svg width="153" height="22" viewBox="0 0 153 22" fill="none" xmlns="http://www.w3.org/2000/svg">
    <path d="M28.1093 0L28.5027 0.108982C30.2218 0.536037 31.8207 1.3532 33.1768 2.49779C34.3012 3.45125 35.2169 4.6285 35.8663 5.95533C35.8788 5.97599 35.8854 5.9997 35.8854 6.02388C35.8854 6.04806 35.8788 6.07178 35.8663 6.09244C35.5254 6.70826 35.1076 7.27771 34.623 7.78693C33.6523 8.80335 32.4349 9.54792 31.0907 9.94723C30.4059 10.1531 29.6965 10.2654 28.9819 10.2812C27.6524 10.3172 26.3349 10.0213 25.1471 9.4199C25.1139 9.40408 25.0842 9.38474 25.0492 9.36716C25.2153 9.15096 25.3797 8.94706 25.5336 8.73437C26.675 7.18718 27.461 5.40478 27.8348 3.51554C28.026 2.55292 28.1105 1.57195 28.0866 0.590611C28.0866 0.395499 28.0656 0.202144 28.0533 0.00703109L28.1093 0Z" fill="#16407F"/>
    <path d="M8.95129 0C8.9408 0.297063 8.91807 0.594127 8.91807 0.89119C8.90156 3.94762 9.9537 6.91276 11.8907 9.26873L11.9642 9.36189C11.9415 9.37595 11.9222 9.39002 11.9012 9.40056C10.8258 9.95509 9.63865 10.2557 8.4302 10.2794C6.32342 10.3449 4.27651 9.56948 2.73664 8.12266C2.10084 7.53856 1.56345 6.85471 1.14539 6.09771C1.13127 6.07505 1.12378 6.04886 1.12378 6.02213C1.12378 5.99539 1.13127 5.9692 1.14539 5.94654C2.15912 3.89119 3.79492 2.21177 5.81774 1.14958C6.78021 0.640602 7.80489 0.260618 8.86561 0.0193355C8.88372 0.0147485 8.9013 0.00826803 8.91807 0L8.95129 0Z" fill="#16407F"/>
    <path d="M0 10.6294C0.00723553 10.5946 0.0119112 10.5594 0.0139891 10.5239C0.046999 9.33574 0.272013 8.16086 0.680219 7.04529C1.9235 8.91204 3.60219 10.1952 5.75126 10.8192C7.83515 11.431 10.0697 11.256 12.0341 10.327C12.0026 10.5028 11.9677 10.6558 11.9449 10.8192C11.8302 11.6015 11.961 12.4003 12.3191 13.1043C12.3371 13.1298 12.3445 13.1614 12.3396 13.1923C12.3347 13.2232 12.3179 13.2509 12.2929 13.2696C11.1113 14.5197 9.55958 15.3526 7.86886 15.6443C5.86057 16.0131 3.78809 15.5928 2.07913 14.4701C1.39312 14.0285 0.779106 13.483 0.258798 12.853C0.217128 12.8025 0.189389 12.7419 0.178361 12.6772C0.0803441 12.1482 0.0253717 11.6121 0.0139891 11.0741C0.0115494 11.0497 0.00686638 11.0256 0 11.002L0 10.6294Z" fill="#16407F"/>
    <path d="M19.0951 17.1612C19.568 16.5086 19.9718 15.8082 20.2999 15.0712C21.8002 15.4456 23.0767 15.0712 24.1364 13.948C25.7959 15.588 27.7736 16.5179 30.1045 16.6321C32.4354 16.7464 34.4918 16.0239 36.3156 14.5456C36.2982 14.5913 36.2877 14.6247 36.2754 14.6564C35.2507 17.1612 33.4776 18.9084 30.9911 19.9402C29.9726 20.3609 28.8988 20.6309 27.8033 20.7418C25.0999 21.0301 22.7043 20.2619 20.5709 18.6043C20.0497 18.1952 19.5715 17.7335 19.1441 17.2262L19.0951 17.1612Z" fill="#16407F"/>
    <path d="M0.699463 14.5474C2.52679 16.0274 4.58843 16.7499 6.91936 16.6321C9.25029 16.5143 11.2227 15.5774 12.8822 13.9445C13.3469 14.4801 13.9547 14.8705 14.6334 15.0696C15.3121 15.2687 16.0334 15.268 16.7117 15.0677C17.0429 15.8102 17.4483 16.517 17.9218 17.177C17.7661 17.3528 17.6158 17.5286 17.4566 17.6885C15.8332 19.3867 13.6737 20.4658 11.3469 20.7418C10.4526 20.8459 9.54809 20.8205 8.661 20.6662C7.62267 20.51 6.60991 20.2144 5.64985 19.7873C4.53455 19.286 3.52538 18.5741 2.67717 17.6903C1.83281 16.8071 1.16866 15.7662 0.722195 14.6265C0.715201 14.6071 0.709955 14.5896 0.699463 14.5474Z" fill="#16407F"/>
    <path d="M36.3367 7.03113C36.4189 7.29128 36.5028 7.53561 36.5745 7.78345C36.829 8.67306 36.9706 9.59146 36.9959 10.5168C37.0162 11.2447 36.9617 11.9727 36.8333 12.6894C36.8249 12.7403 36.8025 12.7878 36.7686 12.8265C36.0379 13.709 35.1296 14.4261 34.1035 14.9306C33.0775 15.4351 31.9568 15.7155 30.8151 15.7536C29.6735 15.7916 28.5368 15.5863 27.4798 15.1512C26.4227 14.7161 25.4692 14.061 24.682 13.229L24.6488 13.1921C25.119 12.311 25.2324 11.2813 24.9653 10.3182C26.9328 11.2515 29.1723 11.4279 31.2604 10.8139C33.4095 10.1951 35.0812 8.91194 36.3367 7.03113Z" fill="#16407F"/>
    <path d="M26.3764 4.69853C26.289 4.94814 26.2016 5.1995 26.1106 5.44735C25.632 6.74995 24.9451 7.96531 24.077 9.0455C23.066 10.2818 21.7864 11.2686 20.3366 11.93C19.7707 12.1898 19.1862 12.4066 18.588 12.5786C18.5438 12.59 18.4975 12.59 18.4534 12.5786C16.949 12.1694 15.5471 11.4465 14.3388 10.457C13.2096 9.50553 12.2819 8.33574 11.611 7.01703C11.2326 6.2975 10.9166 5.54649 10.6667 4.77236C10.6667 4.74775 10.6492 4.72139 10.6422 4.69502L10.6702 4.67041C10.6869 4.7028 10.7068 4.73342 10.7296 4.76181C11.4501 5.47371 12.1635 6.1944 12.8945 6.89399C13.9563 7.93403 15.1292 8.85305 16.3917 9.63436C17.0503 10.0285 17.7377 10.3717 18.4481 10.6609C18.4921 10.6775 18.5405 10.6775 18.5845 10.6609C20.055 10.0539 21.4244 9.22395 22.6448 8.20002C23.4684 7.52327 24.2448 6.7938 25.002 6.04499C25.4392 5.61258 25.8763 5.17665 26.3082 4.74248L26.3659 4.68799L26.3764 4.69853Z" fill="#16407F"/>
    <path d="M18.504 18.0277C19.285 18.8463 20.1789 19.5478 21.1585 20.1107C22.1319 20.6713 23.1817 21.0858 24.2745 21.3411V21.3657C23.8793 21.4501 23.4841 21.5415 23.0872 21.6206C22.0276 21.8201 20.9542 21.9377 19.8767 21.9722C18.6608 22.022 17.4431 22.005 16.229 21.9212C15.0537 21.8459 13.8883 21.6564 12.7493 21.3552C13.841 21.0966 14.8904 20.6823 15.8653 20.1247C16.8413 19.5579 17.7302 18.8515 18.504 18.0277Z" fill="#16407F"/>
    <path d="M21.8387 7.65675C21.6097 7.83252 21.3911 7.996 21.1655 8.15771C20.3627 8.73789 19.5018 9.23216 18.5968 9.63248C18.5674 9.64718 18.5351 9.65484 18.5023 9.65484C18.4696 9.65484 18.4372 9.64718 18.4079 9.63248C17.2778 9.12875 16.216 8.48256 15.2481 7.70948L15.1852 7.65499C16.8481 5.94995 19.8995 5.76011 21.8387 7.65675Z" fill="#16407F"/>
    <path d="M19.2734 13.3678C20.1546 13.0641 21.0049 12.6762 21.8125 12.2095C22.6116 11.7348 23.3498 11.1634 24.0105 10.5079C24.3602 11.2866 24.2221 12.793 23.0435 13.7C22.4856 14.1236 21.7913 14.324 21.0949 14.2627C20.3985 14.2013 19.7495 13.8825 19.2734 13.3678Z" fill="#16407F"/>
    <path d="M17.7451 13.359C17.3141 13.848 16.7243 14.1673 16.081 14.26C15.4376 14.3527 14.7824 14.2128 14.2321 13.8653C12.9136 13.0532 12.5814 11.5802 12.994 10.5079C14.3289 11.8256 15.9579 12.8031 17.7451 13.359Z" fill="#16407F"/>
    <path d="M18.5093 13.765L19.0724 14.331C19.1808 14.44 19.2927 14.549 19.3976 14.6615C19.4081 14.674 19.4157 14.6887 19.4199 14.7045C19.4241 14.7203 19.4249 14.7368 19.4221 14.7529C19.1695 15.3242 18.8639 15.8704 18.5093 16.3841C18.4918 16.3648 18.4796 16.3489 18.4673 16.3331C18.1314 15.8406 17.8388 15.3195 17.593 14.7757C17.5738 14.7353 17.5616 14.7037 17.6035 14.6632C17.8955 14.3732 18.1841 14.0814 18.4778 13.7844L18.5093 13.765Z" fill="#16407F"/>
    <path d="M55.6735 18L56.6451 15.0149H61.3688L62.3404 18H65.3063L60.7935 4.90909H57.2267L52.7076 18H55.6735ZM57.3482 12.8544L58.959 7.90057H59.0613L60.6721 12.8544H57.3482ZM71.4379 8.18182H69.5906V5.82955H66.8675V8.18182H65.5252V10.2273H66.8675V15.3409C66.8548 17.2649 68.1651 18.2173 70.1403 18.1342C70.8434 18.1087 71.342 17.968 71.6168 17.8786L71.1886 15.8523C71.0543 15.8778 70.7667 15.9418 70.511 15.9418C69.9677 15.9418 69.5906 15.7372 69.5906 14.983V10.2273H71.4379V8.18182ZM76.1456 12.3239C76.152 11.0582 76.9254 10.3168 78.0376 10.3168C79.1435 10.3168 79.7955 11.0263 79.7891 12.2344V18H82.5121V11.7486C82.5185 9.44744 81.1634 8.05398 79.1179 8.05398C77.6286 8.05398 76.6314 8.7571 76.1839 9.91406H76.0689V4.90909H73.4226V18H76.1456V12.3239ZM89.1294 18.1918C91.5584 18.1918 93.1948 17.0092 93.5783 15.1875L91.0598 15.0213C90.785 15.7692 90.0819 16.1591 89.1742 16.1591C87.8127 16.1591 86.9498 15.2578 86.9498 13.794V13.7876H93.6358V13.0398C93.6358 9.70312 91.6159 8.05398 89.0208 8.05398C86.1316 8.05398 84.2587 10.1058 84.2587 13.1357C84.2587 16.2486 86.106 18.1918 89.1294 18.1918ZM86.9498 12.1001C87.0073 10.9815 87.8574 10.0866 89.0655 10.0866C90.248 10.0866 91.0662 10.9304 91.0726 12.1001H86.9498ZM98.1358 12.3239C98.1422 11.0582 98.8965 10.3168 99.9959 10.3168C101.089 10.3168 101.747 11.0327 101.741 12.2344V18H104.464V11.7486C104.464 9.46023 103.122 8.05398 101.076 8.05398C99.6188 8.05398 98.5641 8.76989 98.123 9.91406H98.008V8.18182H95.4128V18H98.1358V12.3239ZM109.41 18.1854C110.861 18.1854 111.8 17.5526 112.28 16.6385H112.357V18H114.939V11.3778C114.939 9.03835 112.957 8.05398 110.771 8.05398C108.419 8.05398 106.872 9.17898 106.495 10.9688L109.013 11.1733C109.199 10.5213 109.781 10.0419 110.759 10.0419C111.685 10.0419 112.216 10.5085 112.216 11.3139V11.3523C112.216 11.9851 111.545 12.0682 109.838 12.2344C107.895 12.4134 106.15 13.0653 106.15 15.2578C106.15 17.201 107.537 18.1854 109.41 18.1854ZM110.19 16.3061C109.352 16.3061 108.751 15.9162 108.751 15.1683C108.751 14.4013 109.384 14.0241 110.343 13.8899C110.938 13.8068 111.909 13.6662 112.235 13.4489V14.4908C112.235 15.5199 111.385 16.3061 110.19 16.3061ZM123.525 18L124.497 15.0149H129.22L130.192 18H133.158L128.645 4.90909H125.078L120.559 18H123.525ZM125.2 12.8544L126.811 7.90057H126.913L128.524 12.8544H125.2ZM137.501 4.90909H134.733V18H137.501V4.90909ZM151.808 11.4545C151.808 7.17188 149.149 4.73011 145.678 4.73011C142.188 4.73011 139.548 7.17188 139.548 11.4545C139.548 15.718 142.188 18.179 145.678 18.179C149.149 18.179 151.808 15.7372 151.808 11.4545ZM149.002 11.4545C149.002 14.2287 147.685 15.7308 145.678 15.7308C143.665 15.7308 142.354 14.2287 142.354 11.4545C142.354 8.6804 143.665 7.17827 145.678 7.17827C147.685 7.17827 149.002 8.6804 149.002 11.4545Z" fill="black"/>
</svg>
