<svg width="215" height="94" viewBox="0 0 215 94" fill="none" xmlns="http://www.w3.org/2000/svg">
<rect width="215" height="94" fill="url(#paint0_linear)"/>
<mask id="mask0" mask-type="alpha" maskUnits="userSpaceOnUse" x="0" y="0" width="215" height="94">
<rect width="215" height="94" fill="url(#paint1_linear)"/>
</mask>
<g mask="url(#mask0)">
<path d="M108 78.0001C97.6 85.6001 109 101.5 116 108.5L223.5 102V47.0001C202.833 43.0001 160.4 39.5001 156 57.5001C150.5 80.0001 121 68.5001 108 78.0001Z" fill="url(#paint2_linear)"/>
<path d="M128.814 88.4446C120.402 98.1989 135.101 111.11 143.502 116.347L246.75 85.7137L234.317 32.1375C213.281 32.9129 171.155 39.0959 170.938 57.6246C170.666 80.7854 139.33 76.2518 128.814 88.4446Z" fill="url(#paint3_linear)"/>
<path d="M64.263 26.1638C77.0696 24.782 75.1469 5.31216 72.5848 -4.25002L-23.763 -52.3708L-51.263 -4.73945C-35.3651 9.05798 -0.366758 33.3057 12.4438 19.9173C28.4569 3.18171 48.2546 27.891 64.263 26.1638Z" fill="url(#paint4_linear)"/>
<path d="M51.4595 6.71128C63.6223 2.47022 57.3481 -16.061 52.6906 -24.7964L-52.0411 -49.8914L-68.0618 2.72346C-49.4565 12.5699 -9.88275 28.2784 -0.430397 12.3406C11.385 -7.58165 36.256 12.0126 51.4595 6.71128Z" fill="url(#paint5_linear)"/>
<path d="M61.9645 39.3636H59.7223L58.1413 44.8274H58.0618L56.4759 39.3636H54.2386L56.9084 47H59.2947L61.9645 39.3636ZM67.4581 36.8182H65.4347L62.9141 38.4141V40.3232L65.2457 38.8615H65.3054V47H67.4581V36.8182ZM70.6026 47.1293C71.239 47.1293 71.7908 46.5973 71.7958 45.9361C71.7908 45.2848 71.239 44.7528 70.6026 44.7528C69.9464 44.7528 69.4045 45.2848 69.4094 45.9361C69.4045 46.5973 69.9464 47.1293 70.6026 47.1293ZM77.0831 47.2237C79.6435 47.2237 81.1896 45.2749 81.1946 41.919C81.1996 38.5881 79.6335 36.679 77.0831 36.679C74.5277 36.679 72.9766 38.5831 72.9716 41.919C72.9616 45.2649 74.5178 47.2188 77.0831 47.2237ZM77.0831 45.4389C75.9148 45.4389 75.1591 44.2656 75.1641 41.919C75.169 39.6072 75.9197 38.4439 77.0831 38.4439C78.2415 38.4439 78.9972 39.6072 78.9972 41.919C79.0021 44.2656 78.2464 45.4389 77.0831 45.4389ZM83.5636 47.1293C84.1999 47.1293 84.7518 46.5973 84.7567 45.9361C84.7518 45.2848 84.1999 44.7528 83.5636 44.7528C82.9073 44.7528 82.3654 45.2848 82.3704 45.9361C82.3654 46.5973 82.9073 47.1293 83.5636 47.1293ZM90.044 47.2237C92.6044 47.2237 94.1506 45.2749 94.1555 41.919C94.1605 38.5881 92.5945 36.679 90.044 36.679C87.4886 36.679 85.9375 38.5831 85.9325 41.919C85.9226 45.2649 87.4787 47.2188 90.044 47.2237ZM90.044 45.4389C88.8757 45.4389 88.12 44.2656 88.125 41.919C88.13 39.6072 88.8807 38.4439 90.044 38.4439C91.2024 38.4439 91.9581 39.6072 91.9581 41.919C91.9631 44.2656 91.2074 45.4389 90.044 45.4389ZM98.9904 47H101.143V43.3906H102.714L104.643 47H107.02L104.857 43.0426C106.015 42.5455 106.657 41.5362 106.657 40.1442C106.657 38.1207 105.319 36.8182 103.007 36.8182H98.9904V47ZM101.143 41.6605V38.5781H102.595C103.838 38.5781 104.439 39.13 104.439 40.1442C104.439 41.1534 103.838 41.6605 102.605 41.6605H101.143ZM111.495 47.1491C113.384 47.1491 114.657 46.2294 114.955 44.8125L112.997 44.6832C112.783 45.2649 112.236 45.5682 111.53 45.5682C110.471 45.5682 109.8 44.8672 109.8 43.7287V43.7237H115V43.142C115 40.5469 113.429 39.2642 111.411 39.2642C109.164 39.2642 107.707 40.8601 107.707 43.2166C107.707 45.6378 109.144 47.1491 111.495 47.1491ZM109.8 42.4112C109.845 41.5412 110.506 40.8452 111.445 40.8452C112.365 40.8452 113.002 41.5014 113.007 42.4112H109.8ZM118.5 36.8182H116.382V47H118.5V36.8182ZM123.677 47.1491C125.566 47.1491 126.839 46.2294 127.137 44.8125L125.178 44.6832C124.964 45.2649 124.418 45.5682 123.712 45.5682C122.653 45.5682 121.982 44.8672 121.982 43.7287V43.7237H127.182V43.142C127.182 40.5469 125.611 39.2642 123.592 39.2642C121.345 39.2642 119.888 40.8601 119.888 43.2166C119.888 45.6378 121.325 47.1491 123.677 47.1491ZM121.982 42.4112C122.026 41.5412 122.688 40.8452 123.627 40.8452C124.547 40.8452 125.183 41.5014 125.188 42.4112H121.982ZM130.741 47.1442C131.87 47.1442 132.601 46.652 132.974 45.9411H133.033V47H135.042V41.8494C135.042 40.0298 133.501 39.2642 131.8 39.2642C129.971 39.2642 128.768 40.1392 128.474 41.5312L130.433 41.6903C130.577 41.1832 131.03 40.8104 131.79 40.8104C132.511 40.8104 132.924 41.1733 132.924 41.7997V41.8295C132.924 42.3217 132.402 42.3864 131.075 42.5156C129.563 42.6548 128.206 43.1619 128.206 44.8672C128.206 46.3786 129.285 47.1442 130.741 47.1442ZM131.348 45.6825C130.697 45.6825 130.229 45.3793 130.229 44.7976C130.229 44.201 130.722 43.9077 131.467 43.8033C131.93 43.7386 132.685 43.6293 132.939 43.4602V44.2706C132.939 45.071 132.278 45.6825 131.348 45.6825ZM143.039 41.5412C142.85 40.1342 141.716 39.2642 139.787 39.2642C137.833 39.2642 136.546 40.169 136.551 41.6406C136.546 42.7841 137.267 43.5249 138.758 43.8232L140.081 44.0866C140.747 44.2209 141.05 44.4645 141.06 44.8473C141.05 45.2997 140.558 45.6229 139.817 45.6229C139.061 45.6229 138.559 45.2997 138.43 44.6783L136.347 44.7876C136.546 46.2493 137.789 47.1491 139.812 47.1491C141.791 47.1491 143.208 46.1399 143.213 44.6335C143.208 43.5298 142.487 42.8686 141.005 42.5653L139.623 42.2869C138.912 42.1328 138.649 41.8892 138.654 41.5213C138.649 41.0639 139.166 40.7656 139.822 40.7656C140.558 40.7656 140.995 41.1683 141.1 41.6605L143.039 41.5412ZM148.026 47.1491C149.916 47.1491 151.188 46.2294 151.487 44.8125L149.528 44.6832C149.314 45.2649 148.767 45.5682 148.061 45.5682C147.002 45.5682 146.331 44.8672 146.331 43.7287V43.7237H151.531V43.142C151.531 40.5469 149.96 39.2642 147.942 39.2642C145.695 39.2642 144.238 40.8601 144.238 43.2166C144.238 45.6378 145.675 47.1491 148.026 47.1491ZM146.331 42.4112C146.376 41.5412 147.037 40.8452 147.977 40.8452C148.896 40.8452 149.533 41.5014 149.538 42.4112H146.331ZM155.727 47.1243C156.96 47.1243 157.602 46.4134 157.895 45.777H157.985V47H160.073V36.8182H157.96V40.6463H157.895C157.612 40.0249 157 39.2642 155.722 39.2642C154.047 39.2642 152.63 40.5668 152.63 43.1918C152.63 45.7472 153.987 47.1243 155.727 47.1243ZM156.399 45.4389C155.36 45.4389 154.793 44.5142 154.793 43.1818C154.793 41.8594 155.35 40.9496 156.399 40.9496C157.428 40.9496 158.004 41.8196 158.004 43.1818C158.004 44.544 157.418 45.4389 156.399 45.4389Z" fill="white"/>
<path d="M62.2551 51.7273H61.3319L64.0023 59H64.9114L67.5819 51.7273H66.6586L64.4995 57.8494H64.4142L62.2551 51.7273ZM68.601 59H69.4391V53.5455H68.601V59ZM69.0272 52.6364C69.3539 52.6364 69.6238 52.3807 69.6238 52.0682C69.6238 51.7557 69.3539 51.5 69.0272 51.5C68.7005 51.5 68.4306 51.7557 68.4306 52.0682C68.4306 52.3807 68.7005 52.6364 69.0272 52.6364ZM73.261 59.1136C74.369 59.1136 75.1786 58.5597 75.4343 57.7358L74.6246 57.5085C74.4116 58.0767 73.918 58.3608 73.261 58.3608C72.2773 58.3608 71.5991 57.7251 71.56 56.5568H75.5195V56.2017C75.5195 54.1705 74.3121 53.4744 73.1758 53.4744C71.6985 53.4744 70.7184 54.6392 70.7184 56.3153C70.7184 57.9915 71.6843 59.1136 73.261 59.1136ZM71.56 55.8324C71.6168 54.9837 72.217 54.2273 73.1758 54.2273C74.0849 54.2273 74.6673 54.9091 74.6673 55.8324H71.56ZM78.0302 59H78.854L80.0472 54.8097H80.1325L81.3256 59H82.1495L83.8114 53.5455H82.9308L81.7518 57.7074H81.695L80.5444 53.5455H79.6495L78.4847 57.7216H78.4279L77.2489 53.5455H76.3683L78.0302 59ZM87.8455 59H88.7262V56.1591H90.3171C90.381 56.1591 90.4414 56.1591 90.5018 56.1555L92.0359 59H93.0586L91.4144 55.9957C92.3413 55.6797 92.7745 54.9233 92.7745 53.9574C92.7745 52.6719 92.0075 51.7273 90.3029 51.7273H87.8455V59ZM88.7262 55.3636V52.5085H90.2745C91.4535 52.5085 91.908 53.0838 91.908 53.9574C91.908 54.831 91.4535 55.3636 90.2887 55.3636H88.7262ZM96.3567 59.1136C97.4647 59.1136 98.2743 58.5597 98.53 57.7358L97.7203 57.5085C97.5073 58.0767 97.0137 58.3608 96.3567 58.3608C95.373 58.3608 94.6948 57.7251 94.6557 56.5568H98.6152V56.2017C98.6152 54.1705 97.4078 53.4744 96.2715 53.4744C94.7942 53.4744 93.8141 54.6392 93.8141 56.3153C93.8141 57.9915 94.78 59.1136 96.3567 59.1136ZM94.6557 55.8324C94.7125 54.9837 95.3127 54.2273 96.2715 54.2273C97.1806 54.2273 97.763 54.9091 97.763 55.8324H94.6557ZM100.728 51.7273H99.8901V59H100.728V51.7273ZM104.55 59.1136C105.658 59.1136 106.468 58.5597 106.723 57.7358L105.914 57.5085C105.701 58.0767 105.207 58.3608 104.55 58.3608C103.566 58.3608 102.888 57.7251 102.849 56.5568H106.809V56.2017C106.809 54.1705 105.601 53.4744 104.465 53.4744C102.988 53.4744 102.007 54.6392 102.007 56.3153C102.007 57.9915 102.973 59.1136 104.55 59.1136ZM102.849 55.8324C102.906 54.9837 103.506 54.2273 104.465 54.2273C105.374 54.2273 105.956 54.9091 105.956 55.8324H102.849ZM109.689 59.1278C110.64 59.1278 111.137 58.6165 111.308 58.2614H111.35V59H112.189V55.4062C112.189 53.6733 110.868 53.4744 110.172 53.4744C109.348 53.4744 108.41 53.7585 107.984 54.7528L108.779 55.0369C108.964 54.6392 109.401 54.2131 110.2 54.2131C110.971 54.2131 111.35 54.6214 111.35 55.321V55.3494C111.35 55.7543 110.939 55.7188 109.944 55.8466C108.932 55.978 107.828 56.2017 107.828 57.4517C107.828 58.517 108.652 59.1278 109.689 59.1278ZM109.816 58.375C109.149 58.375 108.666 58.0767 108.666 57.4943C108.666 56.8551 109.248 56.6562 109.902 56.571C110.257 56.5284 111.208 56.429 111.35 56.2585V57.0256C111.35 57.7074 110.811 58.375 109.816 58.375ZM117.582 54.767C117.319 53.9929 116.73 53.4744 115.65 53.4744C114.499 53.4744 113.647 54.1278 113.647 55.0511C113.647 55.804 114.095 56.3082 115.096 56.5426L116.005 56.7557C116.556 56.8835 116.815 57.1463 116.815 57.5227C116.815 57.9915 116.318 58.375 115.536 58.375C114.851 58.375 114.421 58.0803 114.272 57.4943L113.477 57.6932C113.672 58.62 114.436 59.1136 115.551 59.1136C116.818 59.1136 117.681 58.4212 117.681 57.4801C117.681 56.7202 117.205 56.2408 116.232 56.0028L115.423 55.804C114.776 55.6442 114.485 55.4276 114.485 55.0085C114.485 54.5398 114.982 54.1989 115.65 54.1989C116.382 54.1989 116.683 54.6037 116.829 54.9801L117.582 54.767ZM121.23 59.1136C122.338 59.1136 123.147 58.5597 123.403 57.7358L122.593 57.5085C122.38 58.0767 121.887 58.3608 121.23 58.3608C120.246 58.3608 119.568 57.7251 119.529 56.5568H123.488V56.2017C123.488 54.1705 122.281 53.4744 121.145 53.4744C119.667 53.4744 118.687 54.6392 118.687 56.3153C118.687 57.9915 119.653 59.1136 121.23 59.1136ZM119.529 55.8324C119.586 54.9837 120.186 54.2273 121.145 54.2273C122.054 54.2273 122.636 54.9091 122.636 55.8324H119.529ZM133.456 51.7273H132.59V57.4517H132.519L128.542 51.7273H127.689V59H128.57V53.2898H128.641L132.604 59H133.456V51.7273ZM137.321 59.1136C138.798 59.1136 139.792 57.9915 139.792 56.3011C139.792 54.5966 138.798 53.4744 137.321 53.4744C135.844 53.4744 134.849 54.5966 134.849 56.3011C134.849 57.9915 135.844 59.1136 137.321 59.1136ZM137.321 58.3608C136.199 58.3608 135.687 57.3949 135.687 56.3011C135.687 55.2074 136.199 54.2273 137.321 54.2273C138.443 54.2273 138.954 55.2074 138.954 56.3011C138.954 57.3949 138.443 58.3608 137.321 58.3608ZM143.444 53.5455H142.279V52.2386H141.441V53.5455H140.617V54.2557H141.441V57.6648C141.441 58.6165 142.208 59.071 142.918 59.071C143.231 59.071 143.43 59.0142 143.543 58.9716L143.373 58.2188C143.302 58.233 143.188 58.2614 143.004 58.2614C142.634 58.2614 142.279 58.1477 142.279 57.4375V54.2557H143.444V53.5455ZM146.933 59.1136C148.041 59.1136 148.85 58.5597 149.106 57.7358L148.297 57.5085C148.083 58.0767 147.59 58.3608 146.933 58.3608C145.949 58.3608 145.271 57.7251 145.232 56.5568H149.191V56.2017C149.191 54.1705 147.984 53.4744 146.848 53.4744C145.37 53.4744 144.39 54.6392 144.39 56.3153C144.39 57.9915 145.356 59.1136 146.933 59.1136ZM145.232 55.8324C145.289 54.9837 145.889 54.2273 146.848 54.2273C147.757 54.2273 148.339 54.9091 148.339 55.8324H145.232ZM154.33 54.767C154.067 53.9929 153.478 53.4744 152.398 53.4744C151.248 53.4744 150.395 54.1278 150.395 55.0511C150.395 55.804 150.843 56.3082 151.844 56.5426L152.753 56.7557C153.304 56.8835 153.563 57.1463 153.563 57.5227C153.563 57.9915 153.066 58.375 152.284 58.375C151.599 58.375 151.169 58.0803 151.02 57.4943L150.225 57.6932C150.42 58.62 151.184 59.1136 152.299 59.1136C153.566 59.1136 154.429 58.4212 154.429 57.4801C154.429 56.7202 153.953 56.2408 152.98 56.0028L152.171 55.804C151.525 55.6442 151.233 55.4276 151.233 55.0085C151.233 54.5398 151.73 54.1989 152.398 54.1989C153.13 54.1989 153.431 54.6037 153.577 54.9801L154.33 54.767Z" fill="white"/>
<circle cx="18" cy="76" r="9" fill="url(#paint6_linear)"/>
<circle cx="29.5954" cy="68.5955" r="5.90575" transform="rotate(-69.5762 29.5954 68.5955)" fill="url(#paint7_linear)"/>
<circle cx="33.2988" cy="60.2989" r="4.12002" transform="rotate(-69.5762 33.2988 60.2989)" fill="url(#paint8_linear)"/>
<circle cx="183.299" cy="13.2989" r="4.12002" transform="rotate(164.251 183.299 13.2989)" fill="url(#paint9_linear)"/>
</g>
<defs>
<linearGradient id="paint0_linear" x1="-3.99999" y1="-9.01799e-06" x2="215" y2="90.5" gradientUnits="userSpaceOnUse">
<stop stop-color="#16407F"/>
<stop offset="1" stop-color="#0B1842"/>
</linearGradient>
<linearGradient id="paint1_linear" x1="-3.99999" y1="-9.01799e-06" x2="215" y2="90.5" gradientUnits="userSpaceOnUse">
<stop stop-color="#16407F"/>
<stop offset="1" stop-color="#0B1842"/>
</linearGradient>
<linearGradient id="paint2_linear" x1="139" y1="63" x2="223" y2="94.5" gradientUnits="userSpaceOnUse">
<stop stop-color="white" stop-opacity="0.13"/>
<stop offset="1" stop-color="white" stop-opacity="0"/>
</linearGradient>
<linearGradient id="paint3_linear" x1="155.621" y1="66.8251" x2="244.567" y2="78.5209" gradientUnits="userSpaceOnUse">
<stop stop-color="white" stop-opacity="0.13"/>
<stop offset="1" stop-color="white" stop-opacity="0"/>
</linearGradient>
<linearGradient id="paint4_linear" x1="29.9161" y1="23.6542" x2="-27.08" y2="-45.6256" gradientUnits="userSpaceOnUse">
<stop stop-color="white" stop-opacity="0.13"/>
<stop offset="1" stop-color="white" stop-opacity="0"/>
</linearGradient>
<linearGradient id="paint5_linear" x1="17.4345" y1="12.031" x2="-53.7475" y2="-42.571" gradientUnits="userSpaceOnUse">
<stop stop-color="white" stop-opacity="0.13"/>
<stop offset="1" stop-color="white" stop-opacity="0"/>
</linearGradient>
<linearGradient id="paint6_linear" x1="18" y1="67" x2="18" y2="85" gradientUnits="userSpaceOnUse">
<stop stop-color="white" stop-opacity="0.09"/>
<stop offset="1" stop-color="white" stop-opacity="0"/>
</linearGradient>
<linearGradient id="paint7_linear" x1="29.5954" y1="62.6897" x2="29.5954" y2="74.5012" gradientUnits="userSpaceOnUse">
<stop stop-color="white" stop-opacity="0.09"/>
<stop offset="1" stop-color="white" stop-opacity="0"/>
</linearGradient>
<linearGradient id="paint8_linear" x1="33.2988" y1="56.1788" x2="33.2988" y2="64.4189" gradientUnits="userSpaceOnUse">
<stop stop-color="white" stop-opacity="0.09"/>
<stop offset="1" stop-color="white" stop-opacity="0"/>
</linearGradient>
<linearGradient id="paint9_linear" x1="183.299" y1="9.17889" x2="183.299" y2="17.4189" gradientUnits="userSpaceOnUse">
<stop stop-color="white" stop-opacity="0.09"/>
<stop offset="1" stop-color="white" stop-opacity="0"/>
</linearGradient>
</defs>
</svg>
